<mxfile host="app.diagrams.net" modified="2024-01-02T17:00:26.566Z" agent="Mozilla/5.0 (Windows NT 10.0; Win64; x64) AppleWebKit/537.36 (KHTML, like Gecko) Chrome/120.0.0.0 Safari/537.36 Edg/120.0.0.0" etag="1X6ETI5yoank_3-RRTJy" version="22.1.16" type="device">
  <diagram name="Page-1" id="2ttAd0w8bgXDNELtkY3b">
    <mxGraphModel dx="848" dy="563" grid="1" gridSize="10" guides="1" tooltips="1" connect="1" arrows="1" fold="1" page="1" pageScale="1" pageWidth="827" pageHeight="1169" math="0" shadow="0">
      <root>
        <mxCell id="0" />
        <mxCell id="1" parent="0" />
        <mxCell id="CXHsgk9U0QXkuvH_X_pk-25" style="edgeStyle=orthogonalEdgeStyle;curved=1;rounded=0;orthogonalLoop=1;jettySize=auto;html=1;exitX=0;exitY=0.5;exitDx=0;exitDy=0;entryX=0.5;entryY=0;entryDx=0;entryDy=0;" edge="1" parent="1" source="CXHsgk9U0QXkuvH_X_pk-17" target="CXHsgk9U0QXkuvH_X_pk-18">
          <mxGeometry relative="1" as="geometry" />
        </mxCell>
        <mxCell id="CXHsgk9U0QXkuvH_X_pk-27" value="Yêu cầu hiển thị &lt;br&gt;thông báo" style="edgeLabel;html=1;align=center;verticalAlign=middle;resizable=0;points=[];" vertex="1" connectable="0" parent="CXHsgk9U0QXkuvH_X_pk-25">
          <mxGeometry x="-0.2205" y="23" relative="1" as="geometry">
            <mxPoint as="offset" />
          </mxGeometry>
        </mxCell>
        <mxCell id="CXHsgk9U0QXkuvH_X_pk-30" value="Yêu cầu xử lý&lt;br&gt;cho vân tay" style="edgeStyle=orthogonalEdgeStyle;curved=1;rounded=0;orthogonalLoop=1;jettySize=auto;html=1;exitX=0;exitY=0;exitDx=0;exitDy=0;entryX=1;entryY=0.5;entryDx=0;entryDy=0;" edge="1" parent="1" source="CXHsgk9U0QXkuvH_X_pk-17" target="CXHsgk9U0QXkuvH_X_pk-28">
          <mxGeometry x="0.0016" relative="1" as="geometry">
            <mxPoint as="offset" />
          </mxGeometry>
        </mxCell>
        <mxCell id="CXHsgk9U0QXkuvH_X_pk-32" style="edgeStyle=orthogonalEdgeStyle;curved=1;rounded=0;orthogonalLoop=1;jettySize=auto;html=1;exitX=1;exitY=0;exitDx=0;exitDy=0;entryX=0;entryY=0.5;entryDx=0;entryDy=0;" edge="1" parent="1" source="CXHsgk9U0QXkuvH_X_pk-17" target="CXHsgk9U0QXkuvH_X_pk-31">
          <mxGeometry relative="1" as="geometry" />
        </mxCell>
        <mxCell id="CXHsgk9U0QXkuvH_X_pk-33" value="Yêu cầu xử lý &lt;br&gt;cho thẻ RFID" style="edgeLabel;html=1;align=center;verticalAlign=middle;resizable=0;points=[];" vertex="1" connectable="0" parent="CXHsgk9U0QXkuvH_X_pk-32">
          <mxGeometry x="-0.1211" y="4" relative="1" as="geometry">
            <mxPoint as="offset" />
          </mxGeometry>
        </mxCell>
        <mxCell id="CXHsgk9U0QXkuvH_X_pk-35" style="edgeStyle=orthogonalEdgeStyle;curved=1;rounded=0;orthogonalLoop=1;jettySize=auto;html=1;exitX=1;exitY=0.5;exitDx=0;exitDy=0;entryX=0;entryY=0.5;entryDx=0;entryDy=0;" edge="1" parent="1" source="CXHsgk9U0QXkuvH_X_pk-17" target="CXHsgk9U0QXkuvH_X_pk-34">
          <mxGeometry relative="1" as="geometry" />
        </mxCell>
        <mxCell id="CXHsgk9U0QXkuvH_X_pk-36" value="Yêu cầu &lt;br&gt;đổi mật khẩu" style="edgeLabel;html=1;align=center;verticalAlign=middle;resizable=0;points=[];" vertex="1" connectable="0" parent="CXHsgk9U0QXkuvH_X_pk-35">
          <mxGeometry x="-0.1641" y="-3" relative="1" as="geometry">
            <mxPoint as="offset" />
          </mxGeometry>
        </mxCell>
        <mxCell id="CXHsgk9U0QXkuvH_X_pk-38" style="edgeStyle=orthogonalEdgeStyle;curved=1;rounded=0;orthogonalLoop=1;jettySize=auto;html=1;exitX=0.5;exitY=1;exitDx=0;exitDy=0;entryX=0.5;entryY=0;entryDx=0;entryDy=0;" edge="1" parent="1" source="CXHsgk9U0QXkuvH_X_pk-17" target="CXHsgk9U0QXkuvH_X_pk-37">
          <mxGeometry relative="1" as="geometry" />
        </mxCell>
        <mxCell id="CXHsgk9U0QXkuvH_X_pk-39" value="Yêu cầu hiển thị&lt;br&gt;lịch sử" style="edgeLabel;html=1;align=center;verticalAlign=middle;resizable=0;points=[];" vertex="1" connectable="0" parent="CXHsgk9U0QXkuvH_X_pk-38">
          <mxGeometry x="-0.1178" relative="1" as="geometry">
            <mxPoint as="offset" />
          </mxGeometry>
        </mxCell>
        <mxCell id="CXHsgk9U0QXkuvH_X_pk-41" style="edgeStyle=orthogonalEdgeStyle;curved=1;rounded=0;orthogonalLoop=1;jettySize=auto;html=1;exitX=0;exitY=1;exitDx=0;exitDy=0;entryX=0;entryY=0;entryDx=0;entryDy=0;" edge="1" parent="1" source="CXHsgk9U0QXkuvH_X_pk-17" target="CXHsgk9U0QXkuvH_X_pk-40">
          <mxGeometry relative="1" as="geometry" />
        </mxCell>
        <mxCell id="CXHsgk9U0QXkuvH_X_pk-42" value="Yêu cầu xác thực&lt;br&gt;mật khẩu" style="edgeLabel;html=1;align=center;verticalAlign=middle;resizable=0;points=[];" vertex="1" connectable="0" parent="CXHsgk9U0QXkuvH_X_pk-41">
          <mxGeometry x="-0.1746" y="-4" relative="1" as="geometry">
            <mxPoint as="offset" />
          </mxGeometry>
        </mxCell>
        <mxCell id="CXHsgk9U0QXkuvH_X_pk-17" value="Trạng thái chờ sự kiện" style="ellipse;whiteSpace=wrap;html=1;" vertex="1" parent="1">
          <mxGeometry x="340" y="290" width="140" height="110" as="geometry" />
        </mxCell>
        <mxCell id="CXHsgk9U0QXkuvH_X_pk-18" value="Hiển thị thông báo" style="ellipse;whiteSpace=wrap;html=1;" vertex="1" parent="1">
          <mxGeometry x="150" y="410" width="120" height="80" as="geometry" />
        </mxCell>
        <mxCell id="CXHsgk9U0QXkuvH_X_pk-28" value="Thực hiện xử lý cho vân tay" style="ellipse;whiteSpace=wrap;html=1;" vertex="1" parent="1">
          <mxGeometry x="180" y="200" width="120" height="80" as="geometry" />
        </mxCell>
        <mxCell id="CXHsgk9U0QXkuvH_X_pk-31" value="Thực hiện xử lý cho thẻ từ RFID" style="ellipse;whiteSpace=wrap;html=1;" vertex="1" parent="1">
          <mxGeometry x="450" y="180" width="120" height="80" as="geometry" />
        </mxCell>
        <mxCell id="CXHsgk9U0QXkuvH_X_pk-34" value="Thực hiện đổi mật khẩu" style="ellipse;whiteSpace=wrap;html=1;" vertex="1" parent="1">
          <mxGeometry x="560" y="360" width="120" height="80" as="geometry" />
        </mxCell>
        <mxCell id="CXHsgk9U0QXkuvH_X_pk-37" value="Hiển thị lịch sử" style="ellipse;whiteSpace=wrap;html=1;" vertex="1" parent="1">
          <mxGeometry x="460" y="470" width="120" height="80" as="geometry" />
        </mxCell>
        <mxCell id="CXHsgk9U0QXkuvH_X_pk-40" value="Xác thực mật khẩu" style="ellipse;whiteSpace=wrap;html=1;" vertex="1" parent="1">
          <mxGeometry x="293" y="470" width="120" height="80" as="geometry" />
        </mxCell>
      </root>
    </mxGraphModel>
  </diagram>
</mxfile>
